<?xml version="1.0" encoding="UTF-8"?>
<svg id="Isolation_Mode" xmlns="http://www.w3.org/2000/svg" version="1.1" viewBox="0 0 317.73 115.39">
  <!-- Generator: Adobe Illustrator 30.2.0, SVG Export Plug-In . SVG Version: 2.1.1 Build 105)  -->
  <defs>
    <style>
      .st0 {
        fill: #fff;
      }
    </style>
  </defs>
  <rect class="st0" x="1.58" y="2.37" width="314.58" height="6.82"/>
  <rect class="st0" x="1.58" y="79.97" width="314.58" height="6.82"/>
  <path class="st0" d="M64.22,30.32c3.8,0,6.83,1.12,10.46,3.85l3.51,2.64,6.19-8.73-3.28-2.5c-5.01-3.81-10.64-5.75-16.76-5.75-13.55,0-24.58,11.39-24.58,25.38,0,14.36,10.82,25.61,24.63,25.61,6.45,0,11.99-2.03,17.42-6.39l3.15-2.53-6.01-8.41-3.49,2.56c-4.13,3.04-7.31,4.28-10.96,4.28-7.84,0-13.75-6.55-13.75-15.24s5.91-14.78,13.46-14.78Z"/>
  <polygon class="st0" points="122.85 70.25 122.85 20.41 111.96 20.41 111.96 37.11 101.05 37.11 101.05 20.41 90.16 20.41 90.16 70.25 101.05 70.25 101.05 47.53 111.96 47.53 111.96 70.25 122.85 70.25"/>
  <path class="st0" d="M148.39,19.44h-2.05s-19.1,50.82-19.1,50.82h11.36s4.19-11.24,4.19-11.24h13.13s4.02,11.24,4.02,11.24h11.52s-18.55-50.82-18.55-50.82h-2.17s-2.35,0-2.35,0ZM146.65,48.58l2.8-7.53,2.71,7.53h-5.51Z"/>
  <path class="st0" d="M208.4,38.16c0-10.45-8.34-17.75-20.28-17.75h-12.02s0,27.43,0,27.43v1.56s0,20.85,0,20.85h10.89s0-9.69,0-9.69l12.14,9.69h17.34s-19.72-15.49-19.72-15.49c7.22-2.73,11.64-8.73,11.64-16.61ZM187.66,46.06h-.67v-15.22h.89c2.23,0,9.51.53,9.51,7.44,0,2.91-1.26,7.78-9.73,7.78Z"/>
  <polygon class="st0" points="220.08 20.41 220.08 70.25 245.6 70.25 245.6 59.83 230.97 59.83 230.97 20.41 220.08 20.41"/>
  <polygon class="st0" points="278.7 30.84 278.7 20.41 252.72 20.41 252.72 70.25 278.81 70.25 278.81 59.82 263.61 59.82 263.61 47.53 278.47 47.53 278.47 37.1 263.61 37.1 263.61 30.84 278.7 30.84"/>
  <path class="st0" d="M299.84,60.11c-2.26,0-4.88-.83-8-2.52l-4.06-2.21-4.45,10.02,3.64,1.83c3.08,1.54,7.79,3.38,12.75,3.38,9.37,0,16.43-6.45,16.43-15,0-7.73-4.33-11.93-12.32-16.98-6.1-3.85-6.1-4.78-6.1-5.97,0-1.83,1.96-2.1,3.13-2.1,2.13,0,3.57.56,5.34,1.53l3.89,2.14,4.84-9.68-3.72-1.94c-2.53-1.32-5.53-2.55-10.24-2.55-7.96,0-14.19,5.58-14.19,12.7,0,6.68,4.04,10.52,11.01,14.86,7.41,4.64,7.41,6.09,7.41,8.09,0,2.84-1.9,4.4-5.37,4.4Z"/>
  <path class="st0" d="M6.67,45.57h3.33c3.31,0,5.13-1.82,5.13-5.13v-3.47c0-2.13-.64-3.38-2.37-4.63l-5.28-2.47c-.28-.2-.34-.31-.34-.72v-2.38s0-.05,0-.05c.02,0,.03,0,.05,0h2.15s.03,0,.05,0v.05s0,2.46,0,2.46h5.53s0-2.58,0-2.58c0-3.35-2.57-5.1-5.1-5.1h-2.47c-3.83,0-5.78,1.72-5.78,5.12v2.93c0,2.12.67,3.42,2.38,4.64l5.26,2.46c.31.25.35.35.35.73v2.92s0,.05,0,.05c-.02,0-.05,0-.08,0h-2.32s-.06,0-.08,0v-.05s0-2.15,0-2.15H1.58s0,2.27,0,2.27c0,3.29,1.81,5.1,5.1,5.1Z"/>
  <polygon class="st0" points="26.41 45.39 26.41 27.03 30.76 27.03 30.76 21.73 16.7 21.73 16.7 27.03 20.82 27.03 20.82 45.39 26.41 45.39"/>
  <rect class="st0" x="1.58" y="48.43" width="29.19" height="5.45"/>
  <path class="st0" d="M202.26,93.46h-19.28s0,19.56,0,19.56h19.28c1.31,0,2.45-.55,3.4-1.65.89-1.06,1.34-2.34,1.34-3.79v-8.68c0-1.43-.45-2.7-1.34-3.76-.92-1.1-2.1-1.68-3.4-1.68ZM202.98,107.58c0,.35-.09.62-.26.83-.19.21-.33.24-.45.24h-15.26s0-3.22,0-3.22h15.97v2.15ZM202.98,101.05h-15.97s0-3.22,0-3.22h15.26c.08,0,.22,0,.43.25.19.23.28.49.28.82v2.15Z"/>
  <rect class="st0" x="209.34" y="93.46" width="4.02" height="19.56"/>
  <path class="st0" d="M234.98,93.46h-14.54c-1.34,0-2.49.57-3.44,1.69-.86,1.06-1.3,2.32-1.3,3.75s.44,2.73,1.32,3.81c.92,1.07,2.06,1.63,3.22,1.62h.04s14.7,2.18,14.7,2.18c.08,0,.23,0,.43.25.19.23.28.49.28.82,0,.35-.09.62-.26.83-.19.21-.33.24-.45.24h-14.54c-.14,0-.3-.03-.44-.2-.19-.23-.27-.51-.27-.87v-1.1s-4.02,0-4.02,0v1.1c0,1.45.44,2.73,1.32,3.8.93,1.09,2.08,1.64,3.42,1.64h14.54c1.32,0,2.46-.55,3.4-1.65.89-1.06,1.34-2.34,1.34-3.79s-.45-2.7-1.34-3.76c-.92-1.1-2-1.67-3.24-1.67l-14.7-2.18c-.14,0-.3-.03-.44-.2-.19-.23-.27-.51-.27-.87,0-.34.08-.6.25-.82.19-.23.34-.25.46-.25h14.54c.08,0,.23,0,.43.25.19.23.28.49.28.82v1.1s4.02,0,4.02,0v-1.1c0-1.43-.45-2.7-1.34-3.76-.92-1.1-2.1-1.68-3.4-1.68Z"/>
  <polygon class="st0" points="241.15 97.83 251.14 97.83 251.14 113.02 255.16 113.02 255.16 97.83 265.16 97.83 265.16 93.46 241.15 93.46 241.15 97.83"/>
  <path class="st0" d="M289.27,102.69c.89-1.06,1.34-2.34,1.34-3.79s-.45-2.7-1.34-3.76c-.92-1.1-2.1-1.68-3.4-1.68h-19.28s0,19.56,0,19.56h4.02s0-8.68,0-8.68h13.79s2.44,8.68,2.44,8.68h4.11s-2.65-9.43-2.65-9.43c.35-.24.67-.54.97-.89ZM286.32,99.73c-.19.21-.33.24-.45.24h-15.26v-2.13h15.26c.08,0,.22,0,.43.25.19.23.28.49.28.82,0,.35-.09.62-.26.83Z"/>
  <path class="st0" d="M311.31,93.46h-14.54c-1.34,0-2.49.57-3.44,1.69-.86,1.06-1.3,2.32-1.3,3.75v8.68c0,1.45.44,2.73,1.32,3.8.93,1.09,2.08,1.64,3.42,1.64h14.54c1.31,0,2.46-.55,3.4-1.65.88-1.06,1.34-2.34,1.34-3.79v-8.68c0-1.43-.45-2.7-1.34-3.76-.92-1.1-2.1-1.68-3.4-1.68ZM312.03,107.58c0,.35-.09.62-.26.83-.19.21-.33.24-.45.24h-14.54c-.14,0-.29-.03-.44-.2-.19-.23-.27-.51-.27-.87v-8.68c0-.34.08-.6.25-.82.19-.23.34-.25.46-.25h14.54c.08,0,.22,0,.43.25.19.23.28.49.28.82v8.68Z"/>
</svg>